<svg
  xmlns="http://www.w3.org/2000/svg"
  viewBox="0 0 72 72"
  width="64"
  height="64"
  fill="none"
>
  <defs>
    <linearGradient id="bg" x1="0" y1="0" x2="1" y2="1">
      <stop offset="0%" stop-color="#25D366" />
      <stop offset="100%" stop-color="#128C7E" />
    </linearGradient>
  </defs>

  <circle cx="36" cy="36" r="34" fill="url(#bg)" stroke="white" stroke-width="4" />
  <path
    fill="white"
    d="M53.4 43.1c-.9-.5-5.3-2.6-6.1-2.9-.8-.3-1.3-.5-1.9.5-.6 1-2.2 2.9-2.7 3.4-.5.6-1 .6-1.9.2-5.2-2.6-8.6-4.7-12.1-10.5-.9-1.5 0-1.4.6-2.3.6-.7.7-1.2 1.1-2 .4-.8.2-1.5 0-2.1-.3-.6-1.9-4.6-2.6-6.4-.7-1.6-1.4-1.4-1.9-1.5-.5 0-1-.1-1.6-.1-.6 0-1.5.2-2.3 1-.8.8-3 2.9-3 7.1s3 8.2 3.4 8.8c.4.6 6.1 9.3 15.1 13 5.6 2.4 7.8 2.6 10.6 2.2 1.7-.3 5.3-2.2 6.1-4.4.8-2.2.8-4.1.6-4.4-.2-.3-.7-.5-1.6-1z"
  />
</svg>
